<svg width="1440" height="920" viewBox="0 0 1440 920" fill="none" xmlns="http://www.w3.org/2000/svg">
  <defs>
    <linearGradient id="bg" x1="0" y1="0" x2="1440" y2="920" gradientUnits="userSpaceOnUse">
      <stop stop-color="#0D1017"/>
      <stop offset="1" stop-color="#121625"/>
    </linearGradient>
    <linearGradient id="blue" x1="568" y1="386" x2="892" y2="266" gradientUnits="userSpaceOnUse">
      <stop stop-color="#2F82FF"/>
      <stop offset="1" stop-color="#7BBCFF"/>
    </linearGradient>
    <linearGradient id="mint" x1="568" y1="386" x2="910" y2="414" gradientUnits="userSpaceOnUse">
      <stop stop-color="#27E2B0"/>
      <stop offset="1" stop-color="#7EF3CF"/>
    </linearGradient>
    <linearGradient id="amber" x1="568" y1="386" x2="954" y2="560" gradientUnits="userSpaceOnUse">
      <stop stop-color="#FFB24D"/>
      <stop offset="1" stop-color="#FFD48F"/>
    </linearGradient>
  </defs>

  <rect width="1440" height="920" rx="28" fill="url(#bg)"/>
  <rect x="26" y="26" width="1388" height="868" rx="24" fill="#161A24"/>
  <rect x="26" y="26" width="1388" height="68" rx="24" fill="#1B202C"/>
  <text x="136" y="68" fill="#F5F7FB" font-family="Inter, SF Pro Display, Arial, sans-serif" font-size="28" font-weight="700">TuistSpider</text>
  <text x="1172" y="66" fill="#8E98AE" font-family="Inter, SF Pro Text, Arial, sans-serif" font-size="15" font-weight="600">Multi-path highlighting</text>

  <rect x="44" y="112" width="286" height="764" rx="20" fill="#F3F5FA"/>
  <text x="72" y="154" fill="#202636" font-family="Inter, SF Pro Display, Arial, sans-serif" font-size="22" font-weight="700">Filters</text>
  <rect x="72" y="492" width="230" height="330" rx="22" fill="#E8EBF3"/>
  <rect x="88" y="516" width="198" height="58" rx="18" fill="#E7F0FF" stroke="#2F82FF" stroke-width="2"/>
  <text x="106" y="547" fill="#1A243A" font-family="Inter, SF Pro Display, Arial, sans-serif" font-size="16" font-weight="700">HomeFeature</text>
  <rect x="88" y="590" width="198" height="50" rx="16" fill="#FFFFFF"/>
  <text x="106" y="621" fill="#394154" font-family="Inter, SF Pro Display, Arial, sans-serif" font-size="15" font-weight="600">UserSessionService</text>

  <rect x="350" y="112" width="724" height="764" rx="20" fill="#121620"/>
  <text x="380" y="154" fill="#F6F8FC" font-family="Inter, SF Pro Display, Arial, sans-serif" font-size="28" font-weight="700">Connection Paths</text>
  <text x="380" y="182" fill="#8E98AE" font-family="Inter, SF Pro Text, Arial, sans-serif" font-size="15" font-weight="500">focused: HomeFeature   clicked: UserSessionService</text>

  <rect x="394" y="350" width="176" height="74" rx="22" fill="#1F2B43" stroke="#2F82FF" stroke-width="3"/>
  <text x="422" y="381" fill="#F4F8FF" font-family="Inter, SF Pro Display, Arial, sans-serif" font-size="20" font-weight="700">HomeFeature</text>
  <text x="422" y="404" fill="#8AA6D3" font-family="Inter, SF Pro Text, Arial, sans-serif" font-size="13" font-weight="500">fixed focus</text>

  <rect x="664" y="214" width="210" height="68" rx="20" fill="#1B202B" stroke="#2F82FF" stroke-opacity="0.24"/>
  <text x="690" y="247" fill="#F3F7FE" font-family="Inter, SF Pro Display, Arial, sans-serif" font-size="18" font-weight="700">PippoFriendsInterface</text>
  <rect x="668" y="380" width="214" height="68" rx="20" fill="#1B202B" stroke="#27E2B0" stroke-opacity="0.24"/>
  <text x="694" y="413" fill="#F3F7FE" font-family="Inter, SF Pro Display, Arial, sans-serif" font-size="18" font-weight="700">Networking</text>
  <rect x="668" y="546" width="214" height="68" rx="20" fill="#1B202B" stroke="#FFB24D" stroke-opacity="0.24"/>
  <text x="694" y="579" fill="#F3F7FE" font-family="Inter, SF Pro Display, Arial, sans-serif" font-size="18" font-weight="700">OverlaySupport</text>

  <rect x="926" y="354" width="116" height="74" rx="22" fill="#2A354C" stroke="#B0C7FF" stroke-width="2"/>
  <text x="942" y="385" fill="#F3F7FE" font-family="Inter, SF Pro Display, Arial, sans-serif" font-size="15" font-weight="700">UserSession</text>
  <text x="954" y="405" fill="#A8B7D3" font-family="Inter, SF Pro Text, Arial, sans-serif" font-size="11" font-weight="500">clicked node</text>

  <path d="M570 387C616 387 622 248 664 248" stroke="#50607A" stroke-opacity="0.25" stroke-width="8" stroke-linecap="round"/>
  <path d="M570 387C616 387 628 414 668 414" stroke="#50607A" stroke-opacity="0.25" stroke-width="8" stroke-linecap="round"/>
  <path d="M570 387C616 387 628 580 668 580" stroke="#50607A" stroke-opacity="0.25" stroke-width="8" stroke-linecap="round"/>
  <path d="M874 248C918 248 910 391 926 391" stroke="#50607A" stroke-opacity="0.25" stroke-width="8" stroke-linecap="round"/>
  <path d="M882 414C904 414 908 391 926 391" stroke="#50607A" stroke-opacity="0.25" stroke-width="8" stroke-linecap="round"/>
  <path d="M882 580C904 580 916 391 926 391" stroke="#50607A" stroke-opacity="0.25" stroke-width="8" stroke-linecap="round"/>

  <path d="M570 387C616 387 622 248 664 248" stroke="url(#blue)" stroke-width="5" stroke-linecap="round"/>
  <path d="M874 248C918 248 910 391 926 391" stroke="url(#blue)" stroke-width="5" stroke-linecap="round"/>

  <path d="M570 387C616 387 628 414 668 414" stroke="url(#mint)" stroke-width="5" stroke-linecap="round"/>
  <path d="M882 414C904 414 908 391 926 391" stroke="url(#mint)" stroke-width="5" stroke-linecap="round"/>

  <path d="M570 387C616 387 628 580 668 580" stroke="url(#amber)" stroke-width="5" stroke-linecap="round"/>
  <path d="M882 580C904 580 916 391 926 391" stroke="url(#amber)" stroke-width="5" stroke-linecap="round"/>

  <circle cx="664" cy="248" r="6" fill="#60ABFF"/>
  <circle cx="668" cy="414" r="6" fill="#43E7BE"/>
  <circle cx="668" cy="580" r="6" fill="#FFC770"/>
  <circle cx="926" cy="391" r="7" fill="#D0DDFF"/>

  <rect x="1094" y="112" width="302" height="764" rx="20" fill="#F3F5FA"/>
  <text x="1124" y="154" fill="#202636" font-family="Inter, SF Pro Display, Arial, sans-serif" font-size="22" font-weight="700">Paths</text>
  <text x="1328" y="154" fill="#6C7488" font-family="Inter, SF Pro Text, Arial, sans-serif" font-size="14" font-weight="700">3 / 3</text>

  <rect x="1124" y="186" width="240" height="54" rx="16" fill="#FFFFFF"/>
  <text x="1144" y="219" fill="#2B3243" font-family="Inter, SF Pro Display, Arial, sans-serif" font-size="15" font-weight="700">HomeFeature → UserSessionService</text>

  <rect x="1124" y="268" width="240" height="116" rx="18" fill="#FFFFFF"/>
  <rect x="1142" y="288" width="10" height="36" rx="5" fill="#2F82FF"/>
  <text x="1166" y="307" fill="#1D2535" font-family="Inter, SF Pro Display, Arial, sans-serif" font-size="16" font-weight="700">Path 1</text>
  <text x="1323" y="307" fill="#6B7489" font-family="Inter, SF Pro Text, Arial, sans-serif" font-size="13" font-weight="600">2 hops</text>
  <text x="1166" y="333" fill="#697185" font-family="Inter, SF Pro Text, Arial, sans-serif" font-size="13" font-weight="500">HomeFeature → PippoFriendsInterface</text>
  <text x="1166" y="354" fill="#697185" font-family="Inter, SF Pro Text, Arial, sans-serif" font-size="13" font-weight="500">→ UserSessionService</text>
  <circle cx="1336" cy="328" r="9" fill="#2F82FF"/>
  <path d="M1332 328L1335 331L1341 325" stroke="#FFFFFF" stroke-width="2" stroke-linecap="round"/>

  <rect x="1124" y="404" width="240" height="116" rx="18" fill="#FFFFFF"/>
  <rect x="1142" y="424" width="10" height="36" rx="5" fill="#27E2B0"/>
  <text x="1166" y="443" fill="#1D2535" font-family="Inter, SF Pro Display, Arial, sans-serif" font-size="16" font-weight="700">Path 2</text>
  <text x="1323" y="443" fill="#6B7489" font-family="Inter, SF Pro Text, Arial, sans-serif" font-size="13" font-weight="600">2 hops</text>
  <text x="1166" y="469" fill="#697185" font-family="Inter, SF Pro Text, Arial, sans-serif" font-size="13" font-weight="500">HomeFeature → Networking</text>
  <text x="1166" y="490" fill="#697185" font-family="Inter, SF Pro Text, Arial, sans-serif" font-size="13" font-weight="500">→ UserSessionService</text>
  <circle cx="1336" cy="464" r="9" fill="#27E2B0"/>
  <path d="M1332 464L1335 467L1341 461" stroke="#FFFFFF" stroke-width="2" stroke-linecap="round"/>

  <rect x="1124" y="540" width="240" height="116" rx="18" fill="#FFFFFF"/>
  <rect x="1142" y="560" width="10" height="36" rx="5" fill="#FFB24D"/>
  <text x="1166" y="579" fill="#1D2535" font-family="Inter, SF Pro Display, Arial, sans-serif" font-size="16" font-weight="700">Path 3</text>
  <text x="1323" y="579" fill="#6B7489" font-family="Inter, SF Pro Text, Arial, sans-serif" font-size="13" font-weight="600">2 hops</text>
  <text x="1166" y="605" fill="#697185" font-family="Inter, SF Pro Text, Arial, sans-serif" font-size="13" font-weight="500">HomeFeature → OverlaySupport</text>
  <text x="1166" y="626" fill="#697185" font-family="Inter, SF Pro Text, Arial, sans-serif" font-size="13" font-weight="500">→ UserSessionService</text>
  <circle cx="1336" cy="600" r="9" fill="#FFB24D"/>
  <path d="M1332 600L1335 603L1341 597" stroke="#FFFFFF" stroke-width="2" stroke-linecap="round"/>
</svg>
